# xmcd
#
# Track frame offsets: 
#        150
#        21749
#        45027
#        72651
#        92627
#        121422
#        125251
#        139570
#        155478
#        171100
#        200173
#
# Disc length: 2862 seconds
#
# Revision: 0
# Processed by: cddbd v1.5.2PL0 Copyright (c) Steve Scherf et al.
# Submitted via: ExactAudioCopy v1.3
#
DISCID=990b2c0b
DTITLE=Black Market III - Dashboard Jesus
DYEAR=2018
DGENRE=Blues Rock
TTITLE0=Daddy Rollin Stone
TTITLE1=I Wouldn't Treat A Dog (The Way You Treated Me)
TTITLE2=Your Love Is So Cruel
TTITLE3=When The Sun Goes Down
TTITLE4=House Of The Rising Sun
TTITLE5=Prelude
TTITLE6=Black Roses
TTITLE7=Regresare
TTITLE8=Live and Let Live
TTITLE9=O Mary Don't You Weep
TTITLE10=Gallow's Pole
EXTD=
EXTT0=
EXTT1=
EXTT2=
EXTT3=
EXTT4=
EXTT5=
EXTT6=
EXTT7=
EXTT8=
EXTT9=
EXTT10=
PLAYORDER=
